<svg xmlns="http://www.w3.org/2000/svg" viewBox="0 0 399.36 522"><defs><style>.cls-1{fill:#14f414;}</style></defs><title>candlesFichier 84</title><g id="Calque_2" data-name="Calque 2"><g id="Calque_51" data-name="Calque 51"><rect class="cls-1" y="368" width="41.06" height="110.82"/><rect class="cls-1" x="183.34" y="255" width="41.06" height="224.53"/><rect class="cls-1" x="358.3" y="70" width="41.06" height="409.53"/><rect class="cls-1" x="19.11" y="478.11" width="2.83" height="43.89" transform="translate(41.06 1000.11) rotate(180)"/><rect class="cls-1" x="201.74" y="478.11" width="4.25" height="43.89"/><rect class="cls-1" x="376.71" y="479.53" width="4.25" height="42.47"/><rect class="cls-1" x="19.11" y="478.11" width="2.83" height="43.89" transform="translate(41.06 1000.11) rotate(180)"/><rect class="cls-1" x="19.11" y="293" width="2.83" height="75" transform="translate(41.06 661) rotate(180)"/><rect class="cls-1" x="202.48" y="166" width="2.77" height="98"/><rect class="cls-1" x="377.25" width="3.16" height="77"/><rect class="cls-1" x="92" y="320" width="41.06" height="158.82"/><rect class="cls-1" x="111.11" y="478.11" width="2.83" height="43.89" transform="translate(225.06 1000.11) rotate(180)"/><rect class="cls-1" x="111.11" y="478.11" width="2.83" height="43.89" transform="translate(225.06 1000.11) rotate(180)"/><rect class="cls-1" x="111.11" y="236.84" width="2.83" height="108.16" transform="translate(225.06 581.84) rotate(180)"/><rect class="cls-1" x="270" y="182" width="41.06" height="296.82"/><rect class="cls-1" x="289.11" y="478.11" width="2.83" height="43.89" transform="translate(581.06 1000.11) rotate(180)"/><rect class="cls-1" x="289.11" y="478.11" width="2.83" height="43.89" transform="translate(581.06 1000.11) rotate(180)"/><rect class="cls-1" x="289.11" y="91.84" width="2.83" height="95.16" transform="translate(581.06 278.84) rotate(180)"/></g></g></svg>