<svg xmlns="http://www.w3.org/2000/svg" viewBox="0 0 35.62 27.17"><defs><style>.cls-1{fill:#1bee21;}</style></defs><title>discordFichier 28</title><g id="Calque_2" data-name="Calque 2"><g id="BAS"><g id="Barre_du_bas" data-name="Barre du bas"><path class="cls-1" d="M35.21,14.56,35.12,14a29.73,29.73,0,0,0-2.54-7.66l-.12-.25c-.08-.15-.15-.3-.23-.44s0-.07,0-.1l-.38-.7-.07-.12c-.09-.16-.18-.32-.28-.48l-.05-.09L31.29,4l0,0a.35.35,0,0,0-.05-.08l-.13-.22L31,3.48l-.08-.12h0l-.06-.09-.09-.14L30.68,3l-.28-.41,0-.08-.19-.26A29.14,29.14,0,0,0,22.84,0c-.35.63-.67,1.27-1,1.93a24.38,24.38,0,0,0-4-.33,25.89,25.89,0,0,0-4.07.33c-.3-.66-.62-1.3-1-1.93A29.55,29.55,0,0,0,5.44,2.3c-.24.35-.47.7-.7,1.05L4.33,4c-.42.71-.82,1.43-1.19,2.17L3,6.42A30,30,0,0,0,.52,13.93c0,.18-.06.37-.1.55A31.31,31.31,0,0,0,0,19.54c0,1,.05,2.05.15,3.05A30.58,30.58,0,0,0,3,24.48a30,30,0,0,0,6.13,2.69A16,16,0,0,0,11.08,24a19.23,19.23,0,0,1-3-1.46c.26-.19.51-.38.75-.59A21.55,21.55,0,0,0,11.51,23c.61.19,1.23.36,1.87.5a20.52,20.52,0,0,0,4.46.48,20.88,20.88,0,0,0,4.43-.47c.63-.14,1.25-.3,1.86-.5A20.74,20.74,0,0,0,26.81,22c.24.21.49.4.75.59a19,19,0,0,1-3,1.46,16.17,16.17,0,0,0,1.94,3.15l.13,0,.17-.05h0L27,27h0l.17-.06h0l.17-.06.19-.06.16-.06h0l.34-.12.17-.06.19-.08.15-.05,0,0,.15-.06h0l.15-.06h0l.17-.07h0l.15-.06h0l.14-.06.19-.08.16-.07h0l.12-.05.07,0,.14-.06.15-.07.31-.15.08,0,.13-.07.14-.07.33-.16.11-.06.36-.19.07,0,.14-.07.46-.27.11-.06h0l.1-.06h0l.17-.1h0l.18-.11.16-.09.21-.13.18-.12.18-.11.18-.12h0l.16-.11h0l.12-.08.08-.05.37-.26.11-.08.06,0,.09-.07.1-.07,0,0,.11-.08.07-.05.09-.07.15-.11a30.14,30.14,0,0,0,.15-3A30.24,30.24,0,0,0,35.21,14.56ZM12.54,18.43h0a2.73,2.73,0,0,1-.64.07,2.59,2.59,0,0,1-.48,0A3.48,3.48,0,0,1,8.7,14.92a3.49,3.49,0,0,1,2.77-3.56,3.11,3.11,0,0,1,.43,0H12a3.42,3.42,0,0,1,3.11,3.59A3.51,3.51,0,0,1,12.54,18.43Zm11.66,0a3.15,3.15,0,0,1-.44,0,3.08,3.08,0,0,1-.68-.08,3.51,3.51,0,0,1-2.52-3.5,3.44,3.44,0,0,1,3.08-3.59h.12a2.69,2.69,0,0,1,.4,0A3.47,3.47,0,0,1,27,14.92,3.48,3.48,0,0,1,24.2,18.47Z"/></g></g></g></svg>