<svg xmlns="http://www.w3.org/2000/svg" viewBox="0 0 27.43 27.5"><defs><style>.cls-1{fill:#23ed00;}</style></defs><title>githubFichier 24</title><g id="Calque_2" data-name="Calque 2"><g id="BAS"><g id="Barre_du_bas" data-name="Barre du bas"><path class="cls-1" d="M27.43,14A13.93,13.93,0,0,1,17.12,27.5V22.29a3.54,3.54,0,0,0-.62-2l-.29-.36h0a6.48,6.48,0,0,0,4.15-1.46A5.21,5.21,0,0,0,22,16.1a6.61,6.61,0,0,0,.45-1.65,7,7,0,0,0,.08-1,6.7,6.7,0,0,0-.12-1.28,7.17,7.17,0,0,0-.37-1.3,5.34,5.34,0,0,0-1-1.41,1.6,1.6,0,0,0,.05-.21,6.1,6.1,0,0,0,.15-1.36,6.39,6.39,0,0,0-.39-2.19,6.24,6.24,0,0,0-3.27,1.11l-.45.36a12.22,12.22,0,0,0-2.84-.47l-.63,0-.62,0a12.47,12.47,0,0,0-2.87.48,3.94,3.94,0,0,0-.45-.36A6.23,6.23,0,0,0,6.51,5.67a6.63,6.63,0,0,0-.38,2.19,6.1,6.1,0,0,0,.15,1.36,1.6,1.6,0,0,0,0,.21,5.34,5.34,0,0,0-1,1.41A7.17,7.17,0,0,0,5,12.14a6.7,6.7,0,0,0-.12,1.28,7,7,0,0,0,.08,1,6.36,6.36,0,0,0,.32,1.32,5.21,5.21,0,0,0,2,2.9,6.5,6.5,0,0,0,3.89,1.25h.06l-.29.36a3.43,3.43,0,0,0-.58,1.51,3.22,3.22,0,0,1-2.78.08,3.44,3.44,0,0,1-.88-.75c-.36-.42-.4-.64-.67-1a2.65,2.65,0,0,0-1.29-.82c-.38-.11-1-.15-1.08.06s.18.44.3.56a1.21,1.21,0,0,0,.31.2,2.92,2.92,0,0,1,1,.93c.36.52.24.71.54,1.24a3.15,3.15,0,0,0,1.11,1.14,4.25,4.25,0,0,0,3.45.26V27.5A13.93,13.93,0,0,1,0,14a14.22,14.22,0,0,1,.52-3.83h0A13.68,13.68,0,0,1,26.85,10,13.94,13.94,0,0,1,27.43,14Z"/></g></g></g></svg>