<svg xmlns="http://www.w3.org/2000/svg" viewBox="0 0 27.5 27.5"><defs><style>.cls-1{fill:#1bee21;}</style></defs><title>instagramFichier 26</title><g id="Calque_2" data-name="Calque 2"><g id="BAS"><g id="Barre_du_bas" data-name="Barre du bas"><path class="cls-1" d="M19.62,0H7.88A7.88,7.88,0,0,0,0,7.88V19.62A7.88,7.88,0,0,0,7.88,27.5H19.62a7.88,7.88,0,0,0,7.88-7.88V7.88A7.88,7.88,0,0,0,19.62,0ZM25,19.6A5.42,5.42,0,0,1,19.6,25H7.9A5.42,5.42,0,0,1,2.48,19.6V7.9A5.42,5.42,0,0,1,7.9,2.48H19.6A5.42,5.42,0,0,1,25,7.9Z"/><path class="cls-1" d="M13.72,6.71a7.07,7.07,0,1,0,7.07,7.07A7.06,7.06,0,0,0,13.72,6.71Zm0,11.66a4.59,4.59,0,1,1,4.59-4.59A4.58,4.58,0,0,1,13.72,18.37Z"/><circle class="cls-1" cx="21.12" cy="6.38" r="1.66"/></g></g></g></svg>