<svg xmlns="http://www.w3.org/2000/svg" viewBox="0 0 855 576.44"><defs><style>.cls-1{fill:#1bee21;}.cls-2,.cls-3,.cls-4,.cls-5{fill:none;}.cls-3,.cls-4,.cls-5{stroke:#1bee21;stroke-linecap:round;stroke-linejoin:round;}.cls-3{stroke-width:30px;}.cls-4{stroke-width:40px;}.cls-5{stroke-width:20px;}</style></defs><title>lock with wavesFichier 76</title><g id="Calque_2" data-name="Calque 2"><g id="ABOUT"><path class="cls-1" d="M500.46,258.35H488.54V223.68a60.75,60.75,0,0,0-121.5.1v34.57H355.12a28,28,0,0,0-28,28v71.74a28.06,28.06,0,0,0,28,28.05H500.46a28.06,28.06,0,0,0,28.05-28.05V286.4A28.05,28.05,0,0,0,500.46,258.35ZM397,223.93a30.77,30.77,0,1,1,61.54,0v34.42H397Z"/><path class="cls-2" d="M367,224.26v-.48a60.75,60.75,0,0,1,121.5-.1"/><path class="cls-2" d="M334.78,377.44a27.94,27.94,0,0,0,20.34,8.75H500.46a27.93,27.93,0,0,0,20.06-8.45"/><path class="cls-3" d="M199.17,513.05a318,318,0,0,1,7-449.66"/><path class="cls-3" d="M648.83,63.39a318,318,0,0,1,7,449.66"/><path class="cls-2" d="M367,224.26v-.48a60.75,60.75,0,0,1,121.5-.1"/><path class="cls-2" d="M334.78,377.44a27.94,27.94,0,0,0,20.34,8.75H500.46a27.93,27.93,0,0,0,20.06-8.45"/><path class="cls-4" d="M269.18,443a219,219,0,0,1,7-309.64"/><path class="cls-4" d="M578.82,133.4a219,219,0,0,1,7,309.64"/><path class="cls-2" d="M367,224.26v-.48a60.75,60.75,0,0,1,121.5-.1"/><path class="cls-2" d="M334.78,377.44a27.94,27.94,0,0,0,20.34,8.75H500.46a27.93,27.93,0,0,0,20.06-8.45"/><path class="cls-5" d="M121.78,566.44a393.48,393.48,0,0,1,7-556.44"/><path class="cls-5" d="M726.22,10a393.48,393.48,0,0,1,7,556.44"/><path class="cls-2" d="M367,224.26v-.48a60.75,60.75,0,0,1,121.5-.1"/><path class="cls-2" d="M334.78,377.44a27.94,27.94,0,0,0,20.34,8.75H500.46a27.93,27.93,0,0,0,20.06-8.45"/><polyline class="cls-2" points="367.04 224.26 397.02 254.24 401.13 258.35 427.5 284.72 520.52 377.74"/><polyline class="cls-2" points="488.54 223.68 458.56 253.66 453.87 258.35 427.5 284.72 334.78 377.44"/></g></g></svg>