<svg xmlns="http://www.w3.org/2000/svg" viewBox="0 0 100.45 100.45"><defs><style>.cls-1,.cls-2{fill:none;}.cls-1{stroke:#1bee21;stroke-miterlimit:10;stroke-width:4px;}.cls-3{fill:#1bbf1b;}.cls-4{fill:#1bee21;}</style></defs><title>new logoFichier 55</title><g id="Calque_2" data-name="Calque 2"><g id="Calque_41" data-name="Calque 41"><g id="Calque_13" data-name="Calque 13"><circle class="cls-1" cx="50.22" cy="50.22" r="48.22"/><polygon class="cls-2" points="77.44 51.06 70.43 63.21 63.42 75.36 56.4 87.51 49.38 75.36 56.4 63.21 49.38 51.06 42.37 63.21 35.35 51.06 42.37 38.91 49.38 26.75 56.4 14.61 63.42 26.75 56.4 38.91 63.42 51.06 70.43 38.91 77.44 51.06"/><polygon class="cls-2" points="56.4 63.21 49.38 75.36 56.4 87.51 42.37 87.51 35.35 75.36 28.34 63.21 21.33 51.06 28.34 38.91 35.35 26.75 42.37 14.61 56.4 14.61 49.38 26.75 42.37 38.91 35.35 51.06 42.37 63.21 49.38 51.06 56.4 63.21"/><polygon class="cls-3" points="77.44 51.06 70.43 63.21 63.42 75.36 56.4 87.51 49.38 75.36 56.4 63.21 49.38 51.06 42.37 63.21 35.35 51.06 42.37 38.91 49.38 26.75 56.4 14.61 63.42 26.75 56.4 38.91 63.42 51.06 70.43 38.91 77.44 51.06"/><polygon class="cls-4" points="56.4 63.21 49.38 75.36 56.4 87.51 42.37 87.51 35.35 75.36 28.34 63.21 21.33 51.06 28.34 38.91 35.35 26.75 42.37 14.61 56.4 14.61 49.38 26.75 42.37 38.91 35.35 51.06 42.37 63.21 49.38 51.06 56.4 63.21"/></g></g></g></svg>