<svg xmlns="http://www.w3.org/2000/svg" viewBox="0 0 30.44 27"><defs><style>.cls-1{fill:#1bee21;}</style></defs><title>redditFichier 29</title><g id="Calque_2" data-name="Calque 2"><g id="BAS"><g id="Barre_du_bas" data-name="Barre du bas"><path class="cls-1" d="M30.44,13.78a3.36,3.36,0,0,0-5.72-2.39c-.28-.2-.58-.39-.89-.58a9.14,9.14,0,0,0-1-.54A17.65,17.65,0,0,0,16,8.64l.59-2.82.11-.44.78-3.76,4.77,1a2.36,2.36,0,1,0,.29-1.34l-4.77-1L16.39,0,16.1,1.34l-.84,3.94-.09.44-.61,2.92a17.39,17.39,0,0,0-6.91,1.64c-.36.18-.69.36-1,.55s-.6.38-.89.58A3.35,3.35,0,1,0,2,16.86a5.11,5.11,0,0,0-.08,1C2,22.89,7.91,27,15.24,27s13.28-4.11,13.28-9.18a6.24,6.24,0,0,0-.08-1A3.36,3.36,0,0,0,30.44,13.78ZM7.64,16.06a2.25,2.25,0,1,1,2.25,2.26A2.24,2.24,0,0,1,7.64,16.06Zm13.27,6.21-.13.08a9.39,9.39,0,0,1-11.11,0l-.11-.08a.6.6,0,0,1,.41-1,.54.54,0,0,1,.34.09s0,0,0,0a8.6,8.6,0,0,0,9.79,0s0,0,0,0a.52.52,0,0,1,.32-.09.6.6,0,0,1,.61.6A.63.63,0,0,1,20.91,22.27Zm-.45-3.84a2.25,2.25,0,1,1,2.24-2.24A2.25,2.25,0,0,1,20.46,18.43Z"/></g></g></g></svg>