<svg xmlns="http://www.w3.org/2000/svg" viewBox="0 0 137.2 137"><defs><style>.cls-1{fill:#1bee21;}.cls-2{fill:#3eaf3e;}.cls-3{fill:#238423;}</style></defs><title>fuséeFichier 81</title><g id="Calque_2" data-name="Calque 2"><g id="Calque_48" data-name="Calque 48"><path class="cls-1" d="M28,92.83s-8.76-1.75-11.68,4.09-2.92,11.09-7.59,14c0,0,6.43.59,10.51-2.33,0,0-4.67,12.84-15.18,17.52a23.63,23.63,0,0,0,14.5-.37,22.39,22.39,0,0,0,10.61-8.39s2.92,6.42.59,12.26c0,0,12.26-4.67,14.59-20.44"/><path class="cls-1" d="M16.63,132.83s14-6.42,14.6-9.93-.59-9.34-.59-9.34l-9.93,5.84A15.53,15.53,0,0,1,16.63,132.83Z"/><path class="cls-1" d="M17.21,118.23S9,115.9,6.7,118.82c0,0,5.84-9.35,13.43-12.27"/><path class="cls-2" d="M34.53,92.73s-5.27-1-7,2.46-1.76,6.67-4.57,8.43c0,0,3.86.35,6.32-1.41,0,0-2.81,7.73-9.13,10.54a14.17,14.17,0,0,0,8.72-.22,13.37,13.37,0,0,0,6.38-5s1.76,3.87.35,7.38c0,0,7.38-2.81,8.78-12.29"/><path class="cls-2" d="M27.68,116.79s8.43-3.86,8.78-6a20.41,20.41,0,0,0-.35-5.62l-6,3.51A9.37,9.37,0,0,1,27.68,116.79Z"/><path class="cls-2" d="M28,108s-4.92-1.4-6.32.35c0,0,3.51-5.62,8.08-7.37"/></g><g id="Calque_47" data-name="Calque 47"><path class="cls-2" d="M132.33,27.71a28,28,0,0,1-15.05-7.83,28,28,0,0,1-7.81-15.09A108.53,108.53,0,0,1,137.2,0,108.93,108.93,0,0,1,132.33,27.71Z"/><path class="cls-2" d="M79.88,122.71A53.88,53.88,0,0,1,54.37,137,54,54,0,0,0,67.08,96.54a105.41,105.41,0,0,0,11.43-5.06,106.67,106.67,0,0,0,17.12-11,54.07,54.07,0,0,1-15.75,42.18Z"/><path class="cls-2" d="M40.43,69.88A54,54,0,0,0,0,82.5,54.09,54.09,0,0,1,56.5,41.37,107.77,107.77,0,0,0,40.43,69.88Z"/><rect class="cls-2" x="40.52" y="77.15" width="7.73" height="30.89" transform="translate(-52.43 58.39) rotate(-44.93)"/><path class="cls-1" d="M132.33,27.71a28,28,0,0,1-15.05-7.83,28,28,0,0,1-7.81-15.09,107.62,107.62,0,0,0-44.2,26.72c-1,1-1.91,1.93-2.82,2.92q-3.15,3.38-6,6.94A107.77,107.77,0,0,0,40.43,69.88q-1.87,5-3.23,10L57,99.76q5.1-1.35,10.09-3.22a105.41,105.41,0,0,0,11.43-5.06,106.67,106.67,0,0,0,17.12-11q3.56-2.77,6.94-5.9c1-.92,2-1.87,3-2.84A107.73,107.73,0,0,0,132.33,27.71ZM93.06,59.44h0A14.05,14.05,0,0,1,77.65,44h0A14.07,14.07,0,1,1,93.06,59.44Z"/><path class="cls-3" d="M101.58,55.4a14,14,0,0,1-8.52,4h0A14.05,14.05,0,0,1,77.65,44h0A14.07,14.07,0,1,1,101.58,55.4Z"/><rect class="cls-3" x="35.05" y="86.46" width="7.72" height="23.17" transform="translate(-57.88 56.12) rotate(-44.93)"/></g></g></svg>