<svg xmlns="http://www.w3.org/2000/svg" viewBox="0 0 31.74 27.38"><defs><style>.cls-1{fill:none;}.cls-2{fill:#238423;}.cls-3{fill:#1bee21;}.cls-4{fill:#3eaf3e;}</style></defs><title>telegramFichier 30</title><g id="Calque_2" data-name="Calque 2"><g id="BAS"><g id="Barre_du_bas" data-name="Barre du bas"><line class="cls-1" x1="12.74" y1="25.33" x2="12.73" y2="25.47"/><polygon class="cls-2" points="17.75 20.76 12.74 25.33 13.62 17.56 17.75 20.76"/><polygon class="cls-3" points="31.75 0 26.31 27.38 17.75 20.76 13.62 17.56 13.56 17.52 13.63 17.46 27.18 4.9 9.77 15.75 9.77 15.75 9.74 15.74 0 12.46 31.75 0"/><polygon class="cls-4" points="13.63 17.46 13.56 17.52 13.62 17.56 12.74 25.33 12.7 25.37 9.75 15.76 9.77 15.75 9.77 15.75 27.18 4.9 13.63 17.46"/><line class="cls-1" x1="9.75" y1="15.76" x2="9.74" y2="15.74"/><line class="cls-1" x1="12.73" y1="25.47" x2="12.7" y2="25.37"/><line class="cls-1" x1="27.18" y1="4.9" x2="27.18" y2="4.9"/><line class="cls-1" x1="27.18" y1="4.9" x2="27.18" y2="4.9"/></g></g></g></svg>