<svg xmlns="http://www.w3.org/2000/svg" viewBox="0 0 201.43 252.97"><defs><style>.cls-1{fill:#1bee21;}</style></defs><title>unlockedFichier 78</title><g id="Calque_2" data-name="Calque 2"><g id="VESTING"><path class="cls-1" d="M201.43,153.18v71.74A28.05,28.05,0,0,1,173.38,253H28.05A28.05,28.05,0,0,1,0,224.92V153.18a28.05,28.05,0,0,1,28.05-28.05H40V60.59a60.75,60.75,0,0,1,121.49,0V80.17a15,15,0,0,1-30,0V60.75a30.77,30.77,0,0,0-61.54,0v64.38H173.38A28.05,28.05,0,0,1,201.43,153.18Z"/></g></g></svg>