<svg xmlns="http://www.w3.org/2000/svg" viewBox="0 0 196.58 196.58"><defs><style>.cls-1,.cls-2{fill:none;}.cls-1{stroke:#1bee21;stroke-miterlimit:10;stroke-width:8px;}.cls-3{fill:#1bbf1b;}.cls-4,.cls-5{fill:#1bee21;}.cls-5{font-size:25.7px;font-family:Roboto-Regular, Roboto;}.cls-6{letter-spacing:-0.01em;}</style></defs><title>veHODLFichier 80</title><g id="Calque_2" data-name="Calque 2"><g id="VESTING"><g id="Calque_13" data-name="Calque 13"><circle class="cls-1" cx="98.29" cy="98.29" r="94.29"/><polygon class="cls-2" points="151.51 99.92 137.8 123.68 124.09 147.43 110.36 171.19 96.65 147.43 110.36 123.68 96.65 99.92 82.94 123.68 69.21 99.92 82.94 76.17 96.65 52.4 110.36 28.65 124.09 52.4 110.36 76.17 124.09 99.92 137.8 76.17 151.51 99.92"/><polygon class="cls-2" points="110.36 123.68 96.65 147.43 110.36 171.19 82.94 171.19 69.21 147.43 55.5 123.68 41.79 99.92 55.5 76.17 69.21 52.4 82.94 28.65 110.36 28.65 96.65 52.4 82.94 76.17 69.21 99.92 82.94 123.68 96.65 99.92 110.36 123.68"/><polygon class="cls-3" points="151.51 99.92 137.8 123.68 124.09 147.43 110.36 171.19 96.65 147.43 110.36 123.68 96.65 99.92 82.94 123.68 69.21 99.92 82.94 76.17 96.65 52.4 110.36 28.65 124.09 52.4 110.36 76.17 124.09 99.92 137.8 76.17 151.51 99.92"/><polygon class="cls-4" points="110.36 123.68 96.65 147.43 110.36 171.19 82.94 171.19 69.21 147.43 55.5 123.68 41.79 99.92 55.5 76.17 69.21 52.4 82.94 28.65 110.36 28.65 96.65 52.4 82.94 76.17 69.21 99.92 82.94 123.68 96.65 99.92 110.36 123.68"/></g><text class="cls-5" transform="translate(137.49 152.48)"><tspan class="cls-6">v</tspan><tspan x="12.28" y="0">e</tspan></text></g></g></svg>