<svg xmlns="http://www.w3.org/2000/svg" viewBox="0 0 1006.23 1006"><defs><style>.cls-1,.cls-5{fill:#00f900;}.cls-1,.cls-2,.cls-3,.cls-4,.cls-5,.cls-6,.cls-7{stroke:#010001;}.cls-1,.cls-2,.cls-3,.cls-6,.cls-7{stroke-miterlimit:10;}.cls-3,.cls-4,.cls-7{fill:none;}.cls-3,.cls-4,.cls-5,.cls-6,.cls-7{stroke-width:43px;}.cls-4,.cls-5{stroke-linejoin:round;}.cls-6{fill:lime;}.cls-6,.cls-7{stroke-linecap:round;}</style></defs><title>opensource v2Fichier 47</title><g id="Calque_2" data-name="Calque 2"><g id="Calque_39" data-name="Calque 39"><g id="Calque_2-2" data-name="Calque 2"><g id="Calque_12" data-name="Calque 12"><path class="cls-1" d="M503,983.62A480.58,480.58,0,0,1,86.81,743.25c-132.72-229.91-53.94-523.89,176-656.61s523.89-53.94,656.61,176,53.94,523.9-176,656.62a480.75,480.75,0,0,1-240.27,64.39Z"/><path class="cls-2" d="M503.07,44.27c253.36,0,458.78,205.34,458.81,458.7S756.54,961.75,503.17,961.78a458.79,458.79,0,0,1-229.48-61.49,452.44,452.44,0,0,1-91.91-69.77C.86,653.22-2.07,362.82,175.23,181.9A458.66,458.66,0,0,1,503.07,44.27m0-43.77C225.61.4.6,225.25.5,502.71A502.77,502.77,0,0,0,503,1005.5h0c277.47.2,502.55-224.57,502.75-502A502.76,502.76,0,0,0,503.07.5Z"/></g><g id="Calque_15" data-name="Calque 15"><path class="cls-3" d="M151.37,170.4A630.17,630.17,0,0,0,252,225.76,596.66,596.66,0,0,0,317.2,250a627.29,627.29,0,0,0,185.87,28A627.61,627.61,0,0,0,689,250a597.69,597.69,0,0,0,65.3-24.25A631.75,631.75,0,0,0,855,170.36"/><path class="cls-4" d="M151.37,835.56A630,630,0,0,1,252,780.24,598.57,598.57,0,0,1,317.37,756a630.82,630.82,0,0,1,371.79,0,597.16,597.16,0,0,1,65.3,24.29,630.49,630.49,0,0,1,100.67,55.32"/></g><g id="Calque_13" data-name="Calque 13"><path class="cls-3" d="M704.22,256.75c-.7-1.66-1.44-3.28-2.23-5-4-9.45-8.45-18.77-13.13-28A629,629,0,0,0,532.48,24.22h-.39L530.38,24a11.53,11.53,0,0,1-1.44,0,20.12,20.12,0,0,1-2.45-.52H522.2a21,21,0,0,1-9.72,2.4,14.67,14.67,0,0,1-2,.31,24.19,24.19,0,0,1-5.56.7h0a11.61,11.61,0,0,1-1.18,0h-2.62a21.85,21.85,0,0,1-9.68-2.1h-2.19a22,22,0,0,1-5.77-.74h0a41.05,41.05,0,0,1-6.26-.79h-2.5A628.46,628.46,0,0,0,317.2,223.71q-6.57,13.85-13.13,28c-.75,1.7-1.54,3.32-2.19,5a629.93,629.93,0,0,0,0,492.45c.65,1.71,1.44,3.37,2.19,5,4.07,9.5,8.44,18.78,13.13,28A630.41,630.41,0,0,0,473.88,981.91h1a22.43,22.43,0,0,1,5,.57h0a15.59,15.59,0,0,1,3,.31h4.38a15.43,15.43,0,0,1,2.15,0H495a14.72,14.72,0,0,1,2.1,0,7.75,7.75,0,0,1,1.18,0H500a18.75,18.75,0,0,1,3.59.35h8.1l1.44-.31a25.3,25.3,0,0,1,4.91-.48,23.38,23.38,0,0,1,3.54.3,19.52,19.52,0,0,1,3.24-.3h0a22.4,22.4,0,0,1,8.1-1.45h.52A629.54,629.54,0,0,0,688.81,782.42c4.38-9.23,9-18.51,13.13-28q1.18-2.45,2.24-5a630.54,630.54,0,0,0,0-492.45Z"/></g><g id="Calque_11" data-name="Calque 11"><path class="cls-5" d="M503.11,4.05v995.5"/><line class="cls-4" x1="0.59" y1="502.98" x2="1005.59" y2="502.98"/></g><g id="Calque_6" data-name="Calque 6"><path class="cls-6" d="M589.29,417.77a86.17,86.17,0,0,1-45.08,75.75V633.14a41.23,41.23,0,1,1-82.45.05V493.09a86.13,86.13,0,1,1,127.53-75.54Z"/></g></g></g><g id="Calque_40" data-name="Calque 40"><circle class="cls-7" cx="503.3" cy="503" r="480"/></g></g></svg>